- 
http://www.Speed.Cd 
       
http://www.Speed.Cd      fast  and The Hottest Private Tracker on the net

(((--Submit for invite!!--)))

Please Seed back to make the speed Faster!!!

------------------nfo--------------------------
-








































          
          
              
              
                    
                    
                    
                    

Everything Must Go.2010.BRRip.Xvid.AC3-SiC

Poster:
[img]http://img683.imageshack.us/img683/9871/5gwb0rnd.jpg[/img]

IMDB Link:
http://www.imdb.com/title/tt1531663/

Description:
When an alcoholic relapses, causing him to lose his wife and his job, he 
holds a yard sale on his front lawn in an attempt to start over. A new 
neighbor might be the key to his return to form. 

MediaInfo:
General
Complete name                    : Everything Must Go.2010.BRRip.Xvid.AC3-SiC.avi
Format                           : AVI
Format/Info                      : Audio Video Interleave
File size                        : 1.20 GiB
Duration                         : 1h 37mn
Overall bit rate                 : 1 763 Kbps

Video
ID                               : 0
Format                           : MPEG-4 Visual
Format profile                   : Advanced Simple@L5
Format settings, BVOP            : Yes
Format settings, QPel            : No
Format settings, GMC             : No warppoints
Format settings, Matrix          : Default (H.263)
Muxing mode                      : Packed bitstream
Codec ID                         : XVID
Codec ID/Hint                    : XviD
Duration                         : 1h 37mn
Bit rate                         : 1 371 Kbps
Width                            : 720 pixels
Height                           : 304 pixels
Display aspect ratio             : 2.35:1
Frame rate                       : 23.976 fps
Resolution                       : 8 bits
Colorimetry                      : 4:2:0
Scan type                        : Progressive
Bits/(Pixel*Frame)               : 0.261
Stream size                      : 952 MiB (78%)
Writing library                  : XviD 64

Audio
ID                               : 1
Format                           : AC-3
Format/Info                      : Audio Coding 3
Format_Settings_ModeExtension    : CM (complete main)
Codec ID                         : 2000
Duration                         : 1h 37mn
Bit rate mode                    : Constant
Bit rate                         : 384 Kbps
Channel(s)                       : 6 channels
Channel positions                : Front: L C R, Side: L R, LFE
Sampling rate                    : 48.0 KHz
Stream size                      : 267 MiB (22%)
Alignment                        : Aligned on interleaves
Interleave, duration             : 64 ms (1.53 video frames)
Interleave, preload duration     : 192 ms
Title                            : 6ch English

Screenshots:
[img]http://img11.imageshack.us/img11/6375/vlcsnap2011082703h07m18.png[/img]
[img]http://img695.imageshack.us/img695/3980/everythingmustgo2010brr.png[/img]
[img]http://img850.imageshack.us/img850/6077/vlcsnap2011082703h08m26.png[/img]
[img]http://img834.imageshack.us/img834/9995/vlcsnap2011082703h05m10.png[/img]
[img]http://img202.imageshack.us/img202/5540/vlcsnap2011082703h05m33.png[/img]

Note :   N/A

Source : BluRay-TWiZTED Thanks!!!

Encoder: Bezauk

Enjoy!

Respects to CaptainHomey, Cyanide, CM8, Rx, THC, ELEKTRI4KA, 
Killerhz, PA, YeFsTe, BoxSlots, MrRep and everyone in the struggle...